<svg width="24" height="24" viewBox="0 0 24 24" fill="none" xmlns="http://www.w3.org/2000/svg">
<g clip-path="url(#clip0_2434_4244)">
<path d="M20.3383 12.6285L12.0092 20.8775L3.68024 12.6285C3.13086 12.0939 2.69813 11.4513 2.40928 10.7413C2.12044 10.0312 1.98174 9.26906 2.00193 8.50278C2.02211 7.73649 2.20074 6.98268 2.52656 6.28882C2.85239 5.59496 3.31835 4.97607 3.89511 4.47114C4.47187 3.96621 5.14692 3.58617 5.87777 3.35494C6.60862 3.12372 7.37943 3.04633 8.14166 3.12764C8.90389 3.20895 9.64103 3.4472 10.3067 3.82739C10.9723 4.20758 11.552 4.72148 12.0092 5.33671C12.4685 4.72595 13.0489 4.21654 13.714 3.84039C14.3792 3.46423 15.1149 3.22942 15.8749 3.15065C16.635 3.07188 17.4032 3.15085 18.1314 3.38261C18.8595 3.61437 19.532 3.99394 20.1068 4.49755C20.6815 5.00117 21.1461 5.618 21.4715 6.30942C21.7969 7.00085 21.976 7.752 21.9977 8.51585C22.0195 9.27971 21.8833 10.0398 21.5978 10.7486C21.3122 11.4574 20.8834 12.0997 20.3383 12.6351" stroke="#FC4C02" stroke-width="2" stroke-linecap="round" stroke-linejoin="round"/>
<path d="M12.0092 5.32996L9.78809 9.7721L14.2302 13.1037L12.0092 17.5458V20.8774" stroke="#FC4C02" stroke-width="2" stroke-linecap="round" stroke-linejoin="round"/>
</g>
<defs>
<clipPath id="clip0_2434_4244">
<rect width="24" height="24" fill="white"/>
</clipPath>
</defs>
</svg>
