<svg width="21" height="20" viewBox="0 0 21 20" fill="none" xmlns="http://www.w3.org/2000/svg">
<path d="M8.83333 6.66853C8.98016 6.25113 9.26998 5.89917 9.65144 5.67498C10.0329 5.45079 10.4814 5.36884 10.9175 5.44364C11.3536 5.51844 11.7492 5.74517 12.0341 6.08367C12.3191 6.42217 12.475 6.8506 12.4744 7.29306C12.4744 8.54213 10.6008 9.16667 10.6008 9.16667M10.6249 11.6667H10.6333M6.33333 15V16.9463C6.33333 17.3903 6.33333 17.6123 6.42436 17.7263C6.50352 17.8255 6.62356 17.8832 6.75045 17.8831C6.89636 17.8829 7.06973 17.7442 7.41646 17.4668L9.40434 15.8765C9.81043 15.5517 10.0135 15.3892 10.2396 15.2737C10.4402 15.1712 10.6537 15.0963 10.8743 15.051C11.1231 15 11.3831 15 11.9031 15H14C15.4001 15 16.1002 15 16.635 14.7275C17.1054 14.4878 17.4878 14.1054 17.7275 13.635C18 13.1002 18 12.4001 18 11V6.5C18 5.09987 18 4.3998 17.7275 3.86502C17.4878 3.39462 17.1054 3.01217 16.635 2.77248C16.1002 2.5 15.4001 2.5 14 2.5H7C5.59987 2.5 4.8998 2.5 4.36502 2.77248C3.89462 3.01217 3.51217 3.39462 3.27248 3.86502C3 4.3998 3 5.09987 3 6.5V11.6667C3 12.4416 3 12.8291 3.08519 13.147C3.31635 14.0098 3.99022 14.6836 4.85295 14.9148C5.17087 15 5.55836 15 6.33333 15Z" stroke="#FC4C02" stroke-width="2" stroke-linecap="round" stroke-linejoin="round"/>
</svg>
