<svg width="24" height="24" viewBox="0 0 24 24" fill="none" xmlns="http://www.w3.org/2000/svg">
<path d="M13.5 6C13.5 5.55 13.8 5.25 14.25 5.25C14.7 5.25 15 4.95 15 4.5V3C15 2.55 14.7 2.25 14.25 2.25H9.75002C9.30002 2.25 9.00002 2.55 9.00002 3V4.5C9.00002 4.95 9.30002 5.25 9.75002 5.25C10.2 5.25 10.5 5.55 10.5 6V9.525C10.5 10.125 10.275 10.8 9.90002 11.325L4.72502 18.375C4.57502 18.6 4.50002 18.9 4.50002 19.275V20.25C4.50002 21.075 5.17502 21.75 6.00002 21.75H18C18.825 21.75 19.5 21.075 19.5 20.25V19.275C19.5 18.975 19.425 18.675 19.2 18.375L14.025 11.325C13.65 10.8 13.425 10.2 13.425 9.525V6" stroke="#999999" stroke-width="2" stroke-miterlimit="10" stroke-linecap="round" stroke-linejoin="round"/>
<path d="M6.00002 17.25H18" stroke="#999999" stroke-width="2" stroke-miterlimit="10" stroke-linecap="round" stroke-linejoin="round"/>
</svg>
