<svg width="24" height="24" viewBox="0 0 24 24" fill="none" xmlns="http://www.w3.org/2000/svg">
<path d="M11 19C15.4183 19 19 15.4183 19 11C19 6.58176 15.4183 3.00004 11 3.00004C6.58172 3.00004 3 6.58176 3 11C3 15.4183 6.58172 19 11 19Z" stroke="#999999" stroke-width="2" stroke-linecap="round" stroke-linejoin="round"/>
<path d="M21 21L16.65 16.65" stroke="#999999" stroke-width="2" stroke-linecap="round" stroke-linejoin="round"/>
<path d="M9.08997 8.90347C9.25457 8.43554 9.57947 8.04097 10.0071 7.78964C10.4348 7.53831 10.9375 7.44644 11.4264 7.5303C11.9153 7.61416 12.3588 7.86833 12.6782 8.24781C12.9977 8.62728 13.1725 9.10757 13.1718 9.6036C13.1718 11.0039 11.0713 11.704 11.0713 11.704" stroke="#999999" stroke-width="2" stroke-linecap="round" stroke-linejoin="round"/>
<path d="M11.1274 14.5046H11.1344" stroke="#999999" stroke-width="2" stroke-linecap="round" stroke-linejoin="round"/>
</svg>
