<svg width="25" height="24" viewBox="0 0 25 24" fill="none" xmlns="http://www.w3.org/2000/svg">
<g clip-path="url(#clip0_2362_1669)">
<path d="M18.2588 13.7907C18.212 13.7683 16.4624 12.9067 16.1514 12.7948C16.0245 12.7492 15.8885 12.7047 15.7439 12.7047C15.5077 12.7047 15.3092 12.8225 15.1546 13.0538C14.9798 13.3136 14.4507 13.932 14.2872 14.1168C14.2659 14.1412 14.2367 14.1703 14.2193 14.1703C14.2036 14.1703 13.9328 14.0588 13.8509 14.0232C11.974 13.2079 10.5493 11.2473 10.354 10.9167C10.3261 10.8691 10.3249 10.8476 10.3247 10.8476C10.3315 10.8224 10.3946 10.7591 10.4272 10.7265C10.5225 10.6322 10.6258 10.5079 10.7257 10.3877C10.7729 10.3307 10.8203 10.2737 10.8668 10.2199C11.0118 10.0513 11.0763 9.92036 11.1511 9.76872L11.1903 9.68994C11.3729 9.32706 11.2169 9.02083 11.1665 8.92194C11.1252 8.83919 10.3864 7.05618 10.3078 6.86885C10.1189 6.41683 9.86936 6.20636 9.52253 6.20636C9.49035 6.20636 9.52253 6.20636 9.38757 6.21205C9.22323 6.21898 8.3283 6.3368 7.93261 6.58623C7.513 6.85078 6.80313 7.69405 6.80313 9.17706C6.80313 10.5118 7.65014 11.772 8.01381 12.2513C8.02285 12.2634 8.03944 12.2879 8.06352 12.3232C9.45622 14.3571 11.1924 15.8644 12.9524 16.5675C14.6468 17.2443 15.4492 17.3226 15.9054 17.3226H15.9054C16.0971 17.3226 16.2506 17.3075 16.3859 17.2942L16.4718 17.286C17.0571 17.2341 18.3435 16.5676 18.6361 15.7545C18.8666 15.114 18.9273 14.4143 18.774 14.1603C18.6689 13.9877 18.4879 13.9008 18.2588 13.7907Z" fill="white"/>
<path d="M12.713 0C6.21307 0 0.924969 5.24836 0.924969 11.6995C0.924969 13.786 1.48336 15.8284 2.54115 17.6159L0.516501 23.5883C0.478787 23.6996 0.506839 23.8227 0.589203 23.9066C0.648657 23.9673 0.729307 24 0.81167 24C0.843229 24 0.875021 23.9952 0.906034 23.9854L7.13357 22.0064C8.83772 22.917 10.7638 23.3976 12.7131 23.3976C19.2124 23.3977 24.5 18.1498 24.5 11.6995C24.5 5.24836 19.2124 0 12.713 0ZM12.713 20.9606C10.8788 20.9606 9.10227 20.4309 7.57515 19.4289C7.5238 19.3951 7.46419 19.3778 7.40419 19.3778C7.37247 19.3778 7.34068 19.3826 7.30975 19.3925L4.19014 20.3841L5.1972 17.413C5.22977 17.3169 5.21349 17.2108 5.15349 17.1288C3.99058 15.5398 3.37585 13.6625 3.37585 11.6995C3.37585 6.59221 7.56448 2.43709 12.7129 2.43709C17.8608 2.43709 22.0489 6.59221 22.0489 11.6995C22.049 16.8061 17.8609 20.9606 12.713 20.9606Z" fill="white"/>
</g>
<defs>
<clipPath id="clip0_2362_1669">
<rect width="24" height="24" fill="white" transform="translate(0.5)"/>
</clipPath>
</defs>
</svg>
